PathFileType	4	(X/Y/Z)	Patient4_TMGait_0pt5_01_left_06.trc.trc
DataRate	CameraRate	NumFrames	NumMarkers	Units	OrigDataRate	OrigDataStartFrame	OrigNumFrames
71.065989847716	71.065989847716	4	33	mm	71.065989847716	106	       141
Frame#	Time	L.ASIS			Sacral			L.Shoulder			Chest			R.Shoulder			Neck			R.ASIS			R.Thigh.Superior			R.Thigh.Lateral			R.Thigh.Inferior			R.Patella			L.Thigh.Superior			L.Thigh.Lateral			L.Thigh.Inferior			L.Patella			L.Shank.Superior			L.Shank.Lateral			L.Shank.Inferior			R.Shank.Superior			R.Shank.Lateral			R.Shank.Inferior			R.Heel			R.Midfoot.Superior			R.Midfoot.Lateral			R.Toe			L.Heel			L.Midfoot.Lateral			L.Midfoot.Superior			L.Toe			L.Elbow			L.Wrist			R.Elbow			R.Wrist			
		X1	Y1	Z1	X2	Y2	Z2	X3	Y3	Z3	X4	Y4	Z4	X5	Y5	Z5	X6	Y6	Z6	X7	Y7	Z7	X8	Y8	Z8	X9	Y9	Z9	X10	Y10	Z10	X11	Y11	Z11	X12	Y12	Z12	X13	Y13	Z13	X14	Y14	Z14	X15	Y15	Z15	X16	Y16	Z16	X17	Y17	Z17	X18	Y18	Z18	X19	Y19	Z19	X20	Y20	Z20	X21	Y21	Z21	X22	Y22	Z22	X23	Y23	Z23	X24	Y24	Z24	X25	Y25	Z25	X26	Y26	Z26	X27	Y27	Z27	X28	Y28	Z28	X29	Y29	Z29	X30	Y30	Z30	X31	Y31	Z31	X32	Y32	Z32	X33	Y33	Z33	

106	9.457500000000	658.635625258675	969.190081115760	369.834135492903	466.551804055651	1014.169300073205	552.110875201285	620.959938838156	1444.228946771024	361.493235597223	743.947648900183	1367.374571919593	505.346032518466	685.501778192852	1440.639286343197	691.083404168022	644.537313252121	1501.427303885228	511.409433009929	703.430529325109	943.313743018853	640.247224922345	717.739082905630	735.736678324479	606.569303061507	627.593715202749	634.105279903289	669.879373639730	691.049098372609	575.461137440318	584.632767332170	680.212947699344	488.642309842542	587.481369571650	746.073676928021	793.376161017542	392.495797929176	701.119338690055	665.041050877554	317.536810866796	808.523672453390	606.417817634503	371.938011420474	829.521989026587	522.956633336045	363.318259900685	782.959710108112	447.869825064514	358.757454859170	662.187742761157	362.484427909592	314.205612591432	695.814869443665	236.286390187600	368.625543971021	647.593526781112	402.756277486021	592.763317772560	571.823784966474	302.526019091832	654.016895791490	603.931430356776	207.462006692151	585.609789542231	456.831146250868	47.182824570393	554.398759516581	631.828300424291	97.214248333730	584.538463175884	543.334426982690	36.367062276310	623.811164597251	751.016736625792	39.154024335197	604.591141989231	539.237267163659	112.753378783853	412.493260957018	604.882229739105	87.555127077984	329.940870272986	701.666657587574	129.618775512935	346.271790718411	809.994214505528	49.340840289798	316.373512330444	490.643568068873	1111.171087375350	262.319917257637	487.266647152715	850.373094336088	259.263278403203	754.110010901232	1126.855762562475	845.803210901724	1004.892798058800	1130.373557608911	814.392341346894	
107	9.471571428571	656.649334118046	968.941873113682	369.703760122763	465.619643525723	1014.109661061528	553.218512168547	620.168390034610	1444.275291770320	362.979460671430	743.813809570534	1366.570047003192	505.766729661616	686.864450851035	1439.510963609629	692.083494174815	644.823468060403	1500.920059386680	512.941920902941	702.590947910410	942.658736577366	639.996888200300	715.331498750420	735.000268828440	606.419471749814	624.767130322545	633.750139212904	670.199915743228	687.510384828705	574.733618726856	584.858701004008	675.984021284023	487.941114685264	587.827971314116	743.473023207127	793.157692831141	392.309342516583	698.745588542376	664.545477815783	317.472884080071	805.402961094450	606.091988880783	373.140432152813	827.863113207604	524.923872932623	364.382989646567	786.039647821650	449.325701769437	359.072007494543	672.236435398134	355.548811372443	313.636687358314	715.180468152740	231.802232484783	367.805081644928	642.794203414067	402.217069785292	593.058617292423	566.396683371262	302.460791578812	654.413654462067	597.775492641814	207.212037468872	585.843076756599	449.767976123117	47.442416244320	554.588365219127	624.857656295666	97.195481953307	584.726022379834	536.273176218078	36.356571136961	623.914014648323	743.934277799792	39.009011973028	604.638558513905	568.416386805463	96.106300407013	410.734761964171	636.139373494717	76.629732019363	328.263658046948	729.358482035148	126.001609114199	345.148181877722	843.821669666195	54.727475864691	315.248167107584	485.588231032163	1112.945031062570	264.905941748015	479.762314474410	852.046720039521	262.831389083765	762.969846724290	1126.435431467559	843.935775441809	1013.392622283107	1136.730751779904	810.899912434344	
108	9.485642857143	654.889832998957	968.436168613895	369.432910330857	464.723442796434	1013.821307224286	554.026744568160	619.481845796229	1444.155669105240	364.307279965751	743.654781663026	1365.633858663103	506.138577226535	687.970224366668	1438.154828376515	692.982050585407	645.059019576786	1500.232067084388	514.362103521755	701.794540131538	941.910113079880	639.650494904760	713.129979240219	734.179063963703	606.297766075186	622.067273137651	633.282686973756	670.417463262672	684.181343285366	573.913284478616	585.048267356073	671.950400790549	487.120458370608	588.098181126200	740.645247296378	792.206710183369	392.052494144720	695.869388907304	663.460572634050	317.273280210677	801.640713796038	604.934860145067	374.353522157632	825.426606469528	526.244703238149	365.558964062719	788.397675345363	450.571497704767	359.350235265346	682.251055555722	348.898104626318	312.824266746854	734.257559313747	228.285416418934	366.793554016774	638.141840534610	401.556308867367	593.259464253800	561.079320323885	302.303532008912	654.684964532891	591.673651816976	206.860290571230	585.980656643059	442.701234943175	47.633125680561	554.724114959925	617.861596264608	97.159903050786	584.868967245462	529.203212075249	36.336893487181	623.997035859160	736.854839846766	38.874019284321	604.691723889116	598.091938352521	81.358804488500	408.579671280336	667.582729659498	67.524532847680	326.331800999732	756.752744879155	123.780130092074	343.872543399328	876.605615251416	61.581370518002	314.269067310917	481.323304519173	1114.355104792139	267.158709098056	473.296585698091	853.379599622124	266.142558910109	771.321675222950	1125.721849150387	841.595677209554	1021.285443842742	1142.049226090737	807.021063458091	
109	9.499714285714	653.376998750051	967.709921569365	369.046994355755	463.889984805834	1013.332700486049	554.536845314736	618.910636324211	1443.892992463796	365.459249489824	743.478509470941	1364.597375114763	506.455027746904	688.822560619122	1436.616253345328	693.769844590847	645.251366316225	1499.396589359677	515.649270735004	701.048947009187	941.088898906873	639.229493423929	711.102080973112	733.275195606340	606.190727565089	619.443244104201	632.721177333345	670.513699690794	680.997532030388	573.009989642380	585.176332381150	668.048989422298	486.198647954380	588.261366664782	737.695399007479	790.639420581339	391.706266205738	692.582547967033	661.888343069087	316.939358159650	797.463191911949	603.112889914214	375.408147896428	822.427747633912	527.015466756966	366.725154314214	790.127337111914	451.681258123153	359.545242610015	692.091753010185	342.787236142145	311.822650826741	752.713922335118	225.899868890130	365.639613545792	633.583857928249	400.794005898205	593.342146386910	555.834948786710	302.070864530482	654.817012487606	585.604636899941	206.426217214506	586.013682308921	435.628485712363	47.757682363081	554.804424082298	610.839571596055	97.109801687019	584.963636819096	522.123460817456	36.311721857447	624.055946593596	729.778813811655	38.753956979321	604.749191911153	627.624470891712	68.910879979511	406.207427052981	698.550914806255	60.481151955034	324.287465284752	783.337029978798	123.060543611936	342.505587314692	907.757431324008	69.779511059887	313.449847436237	477.825884012677	1115.412351276594	269.034241713782	467.888585670938	854.368307503438	269.135947999904	779.103139222967	1124.738522237814	838.812507800753	1028.552016970127	1146.316735366772	802.780362103621	
